<?xml version="1.0" standalone="no"?>
<!DOCTYPE svg PUBLIC "-//W3C//DTD SVG 20010904//EN"
 "http://www.w3.org/TR/2001/REC-SVG-20010904/DTD/svg10.dtd">
<svg version="1.0" xmlns="http://www.w3.org/2000/svg"
 width="512.000000pt" height="512.000000pt" viewBox="0 0 512.000000 512.000000"
 preserveAspectRatio="xMidYMid meet">

<g transform="translate(0.000000,512.000000) scale(0.100000,-0.100000)"
fill="#000000" stroke="none">
<path d="M725 4669 c-140 -21 -259 -99 -364 -238 -199 -265 -295 -512 -342
-881 -18 -137 -15 -497 5 -657 67 -547 263 -1043 594 -1512 208 -293 510 -592
814 -804 557 -388 1245 -597 1893 -574 324 12 607 74 811 178 121 61 332 206
398 273 108 109 161 268 136 409 -24 135 -32 145 -472 583 -358 356 -411 404
-474 437 -133 68 -249 83 -365 47 -122 -38 -150 -65 -374 -364 -149 -200 -212
-276 -234 -286 -41 -16 -103 -15 -138 4 -43 22 -1331 1317 -1343 1349 -14 40
-13 83 5 117 9 18 118 106 288 233 149 112 285 220 300 240 73 97 109 238 90
352 -24 139 -26 142 -476 593 -274 275 -430 424 -467 446 -83 50 -187 70 -285
55z"/>
</g>
</svg>
